<?xml version="1.0" standalone="no"?>
<!DOCTYPE svg PUBLIC "-//W3C//DTD SVG 20010904//EN"
 "http://www.w3.org/TR/2001/REC-SVG-20010904/DTD/svg10.dtd">
<svg version="1.0" xmlns="http://www.w3.org/2000/svg"
 width="306.000000pt" height="306.000000pt" viewBox="0 0 306.000000 306.000000"
 preserveAspectRatio="xMidYMid meet">
<metadata>
Created by potrace 1.14, written by Peter Selinger 2001-2017
</metadata>
<g transform="translate(0.000000,306.000000) scale(0.100000,-0.100000)"
fill="#000000" stroke="none">
<path d="M1485 2708 c-38 -4 -109 -19 -158 -33 -88 -25 -239 -91 -245 -106 -2
-5 -8 -9 -14 -9 -21 0 -162 -116 -230 -190 -266 -287 -366 -695 -266 -1090 11
-47 36 -120 53 -162 l33 -77 -24 9 c-142 54 -186 138 -118 227 14 18 23 33 21
33 -13 0 -77 -31 -82 -40 -3 -5 -13 -10 -22 -10 -17 0 -86 -51 -121 -90 -20
-22 -37 -67 -36 -95 3 -59 68 -126 174 -180 62 -31 226 -90 280 -100 98 -19
131 -28 137 -39 5 -8 33 -35 63 -60 271 -231 609 -311 945 -224 130 34 316
129 400 205 11 10 41 36 66 59 35 32 58 43 109 54 36 7 110 29 164 47 308 106
396 233 252 365 -34 32 -186 112 -195 103 -3 -4 -1 -9 5 -13 29 -21 48 -73 45
-124 -2 -28 -47 -73 -98 -98 -26 -13 -52 -26 -56 -28 -5 -2 -2 9 7 25 126 245
146 609 47 894 -170 494 -641 804 -1136 747z"/>
</g>
</svg>
